<svg width="48" height="48" viewBox="0 0 48 48" fill="none" xmlns="http://www.w3.org/2000/svg">
  <defs>
    <linearGradient id="ringGradient" x1="0%" y1="0%" x2="100%" y2="100%">
      <stop offset="0%" style="stop-color:#3ECF8E;stop-opacity:1" />
      <stop offset="50%" style="stop-color:#06B6D4;stop-opacity:1" />
      <stop offset="100%" style="stop-color:#8B5CF6;stop-opacity:1" />
    </linearGradient>
    <linearGradient id="ghostGradient" x1="0%" y1="0%" x2="100%" y2="100%">
      <stop offset="0%" style="stop-color:#5DDEAA;stop-opacity:1" />
      <stop offset="100%" style="stop-color:#06B6D4;stop-opacity:1" />
    </linearGradient>
  </defs>
  
  <!-- Outer ring -->
  <circle cx="24" cy="24" r="20" stroke="url(#ringGradient)" stroke-width="3" fill="none"/>
  
  <!-- Ghost shape -->
  <g fill="url(#ghostGradient)">
    <!-- Ghost body -->
    <path d="M 24 12 C 18 12 14 16 14 22 L 14 32 C 14 32 16 30 18 30 C 20 30 20 32 22 32 C 24 32 24 30 26 30 C 28 30 28 32 30 32 C 32 32 32 30 34 30 L 34 22 C 34 16 30 12 24 12 Z"/>
    
    <!-- Eyes -->
    <ellipse cx="20" cy="21" rx="2" ry="3" fill="#0F1419"/>
    <ellipse cx="28" cy="21" rx="2" ry="3" fill="#0F1419"/>
    
    <!-- Arrow up -->
    <path d="M 24 24 L 24 30 M 24 24 L 21 27 M 24 24 L 27 27" stroke="#0F1419" stroke-width="2" stroke-linecap="round" stroke-linejoin="round" fill="none"/>
  </g>
</svg>
